<?xml version="1.0" encoding="UTF-8" standalone="no"?>
<!-- Created with Inkscape (http://www.inkscape.org/) -->

<svg
   xmlns:dc="http://purl.org/dc/elements/1.1/"
   xmlns:cc="http://creativecommons.org/ns#"
   xmlns:rdf="http://www.w3.org/1999/02/22-rdf-syntax-ns#"
   xmlns:svg="http://www.w3.org/2000/svg"
   xmlns="http://www.w3.org/2000/svg"
   xmlns:sodipodi="http://sodipodi.sourceforge.net/DTD/sodipodi-0.dtd"
   xmlns:inkscape="http://www.inkscape.org/namespaces/inkscape"
   width="744.09448819"
   height="1052.3622047"
   id="svg2"
   version="1.1"
   inkscape:version="0.92.4 5da689c313, 2019-01-14"
   sodipodi:docname="pi1.svg">
  <defs
     id="defs4">
    <marker
       inkscape:stockid="Arrow2Send"
       orient="auto"
       refY="0.0"
       refX="0.0"
       id="Arrow2Send"
       style="overflow:visible;">
      <path
         id="path4539"
         style="fill-rule:evenodd;stroke-width:0.62500000;stroke-linejoin:round;"
         d="M 8.7185878,4.0337352 L -2.2072895,0.016013256 L 8.7185884,-4.0017078 C 6.9730900,-1.6296469 6.9831476,1.6157441 8.7185878,4.0337352 z "
         transform="scale(0.3) rotate(180) translate(-2.3,0)" />
    </marker>
    <marker
       inkscape:stockid="Arrow2Lend"
       orient="auto"
       refY="0.0"
       refX="0.0"
       id="Arrow2Lend"
       style="overflow:visible;">
      <path
         id="path4527"
         style="fill-rule:evenodd;stroke-width:0.62500000;stroke-linejoin:round;"
         d="M 8.7185878,4.0337352 L -2.2072895,0.016013256 L 8.7185884,-4.0017078 C 6.9730900,-1.6296469 6.9831476,1.6157441 8.7185878,4.0337352 z "
         transform="scale(1.1) rotate(180) translate(1,0)" />
    </marker>
    <marker
       inkscape:stockid="Arrow2Send"
       orient="auto"
       refY="0"
       refX="0"
       id="Arrow2Send-0"
       style="overflow:visible">
      <path
         inkscape:connector-curvature="0"
         id="path4539-9"
         style="fill-rule:evenodd;stroke-width:0.625;stroke-linejoin:round"
         d="M 8.7185878,4.0337352 -2.2072895,0.01601326 8.7185884,-4.0017078 c -1.7454984,2.3720609 -1.7354408,5.6174519 -6e-7,8.035443 z"
         transform="matrix(-0.3,0,0,-0.3,0.69,0)" />
    </marker>
    <marker
       inkscape:stockid="Arrow2Send"
       orient="auto"
       refY="0"
       refX="0"
       id="Arrow2Send-02"
       style="overflow:visible">
      <path
         inkscape:connector-curvature="0"
         id="path4539-5"
         style="fill-rule:evenodd;stroke-width:0.625;stroke-linejoin:round"
         d="M 8.7185878,4.0337352 -2.2072895,0.01601326 8.7185884,-4.0017078 c -1.7454984,2.3720609 -1.7354408,5.6174519 -6e-7,8.035443 z"
         transform="matrix(-0.3,0,0,-0.3,0.69,0)" />
    </marker>
    <marker
       inkscape:stockid="Arrow2Send"
       orient="auto"
       refY="0"
       refX="0"
       id="marker5542"
       style="overflow:visible">
      <path
         inkscape:connector-curvature="0"
         id="path5544"
         style="fill-rule:evenodd;stroke-width:0.625;stroke-linejoin:round"
         d="M 8.7185878,4.0337352 -2.2072895,0.01601326 8.7185884,-4.0017078 c -1.7454984,2.3720609 -1.7354408,5.6174519 -6e-7,8.035443 z"
         transform="matrix(-0.3,0,0,-0.3,0.69,0)" />
    </marker>
  </defs>
  <sodipodi:namedview
     id="base"
     pagecolor="#ffffff"
     bordercolor="#666666"
     borderopacity="1.0"
     inkscape:pageopacity="0.0"
     inkscape:pageshadow="2"
     inkscape:zoom="1.9657569"
     inkscape:cx="357.5074"
     inkscape:cy="593.18154"
     inkscape:document-units="px"
     inkscape:current-layer="layer1"
     showgrid="false"
     inkscape:window-width="2500"
     inkscape:window-height="1348"
     inkscape:window-x="30"
     inkscape:window-y="30"
     inkscape:window-maximized="0" />
  <metadata
     id="metadata7">
    <rdf:RDF>
      <cc:Work
         rdf:about="">
        <dc:format>image/svg+xml</dc:format>
        <dc:type
           rdf:resource="http://purl.org/dc/dcmitype/StillImage" />
        <dc:title />
      </cc:Work>
    </rdf:RDF>
  </metadata>
  <g
     inkscape:label="Layer 1"
     inkscape:groupmode="layer"
     id="layer1">
    <rect
       style="color:#000000;display:inline;overflow:visible;visibility:visible;opacity:1;fill:#ffffff;fill-opacity:0.97647059;stroke:#ff0817;stroke-width:1.00157475;stroke-linecap:butt;stroke-linejoin:miter;stroke-miterlimit:4;stroke-dasharray:1.00157475, 1.00157475;stroke-dashoffset:0;stroke-opacity:1;marker:none;enable-background:accumulate"
       id="rect4689"
       width="732.54224"
       height="1034.7159"
       x="14.752587"
       y="100.56596"
       rx="10"
       ry="10" />
    <path
       sodipodi:type="arc"
       style="fill:#808080"
       id="path2989"
       sodipodi:cx="274.25641"
       sodipodi:cy="362.93307"
       sodipodi:rx="18.687822"
       sodipodi:ry="12.626906"
       d="m 292.94423,362.93307 a 18.687822,12.626906 0 1 1 -37.37564,0 18.687822,12.626906 0 1 1 37.37564,0 z"
       transform="matrix(0.32432433,0,0,0.51999998,244.4023,112.58858)" />
    <path
       sodipodi:type="arc"
       style="fill:#808080"
       id="path2989-6"
       sodipodi:cx="274.25641"
       sodipodi:cy="362.93307"
       sodipodi:rx="18.687822"
       sodipodi:ry="12.626906"
       d="m 292.94423,362.93307 a 18.687822,12.626906 0 1 1 -37.37564,0 18.687822,12.626906 0 1 1 37.37564,0 z"
       transform="matrix(0.32432433,0,0,0.51999998,244.40231,133.2967)" />
    <path
       sodipodi:type="arc"
       style="fill:#808080"
       id="path2989-3"
       sodipodi:cx="274.25641"
       sodipodi:cy="362.93307"
       sodipodi:rx="18.687822"
       sodipodi:ry="12.626906"
       d="m 292.94423,362.93307 a 18.687822,12.626906 0 1 1 -37.37564,0 18.687822,12.626906 0 1 1 37.37564,0 z"
       transform="matrix(0.32432433,0,0,0.51999998,244.40231,152.48959)" />
    <path
       sodipodi:type="arc"
       style="fill:#808080"
       id="path2989-0"
       sodipodi:cx="274.25641"
       sodipodi:cy="362.93307"
       sodipodi:rx="18.687822"
       sodipodi:ry="12.626906"
       d="m 292.94423,362.93307 a 18.687822,12.626906 0 1 1 -37.37564,0 18.687822,12.626906 0 1 1 37.37564,0 z"
       transform="matrix(0.32432433,0,0,0.51999998,243.89724,171.6825)" />
    <path
       sodipodi:type="arc"
       style="fill:#808080"
       id="path2989-7"
       sodipodi:cx="274.25641"
       sodipodi:cy="362.93307"
       sodipodi:rx="18.687822"
       sodipodi:ry="12.626906"
       d="m 292.94423,362.93307 a 18.687822,12.626906 0 1 1 -37.37564,0 18.687822,12.626906 0 1 1 37.37564,0 z"
       transform="matrix(0.32432433,0,0,0.51999998,244.90739,191.88555)" />
    <path
       sodipodi:type="arc"
       style="fill:#808080"
       id="path2989-31"
       sodipodi:cx="274.25641"
       sodipodi:cy="362.93307"
       sodipodi:rx="18.687822"
       sodipodi:ry="12.626906"
       d="m 292.94423,362.93307 a 18.687822,12.626906 0 1 1 -37.37564,0 18.687822,12.626906 0 1 1 37.37564,0 z"
       transform="matrix(0.32432433,0,0,0.51999998,244.90738,211.83606)" />
    <path
       sodipodi:type="arc"
       style="fill:#808080"
       id="path2989-6-3"
       sodipodi:cx="274.25641"
       sodipodi:cy="362.93307"
       sodipodi:rx="18.687822"
       sodipodi:ry="12.626906"
       d="m 292.94423,362.93307 a 18.687822,12.626906 0 1 1 -37.37564,0 18.687822,12.626906 0 1 1 37.37564,0 z"
       transform="matrix(0.32432433,0,0,0.51999998,244.90739,232.54418)" />
    <path
       sodipodi:type="arc"
       style="fill:#808080"
       id="path2989-3-1"
       sodipodi:cx="274.25641"
       sodipodi:cy="362.93307"
       sodipodi:rx="18.687822"
       sodipodi:ry="12.626906"
       d="m 292.94423,362.93307 a 18.687822,12.626906 0 1 1 -37.37564,0 18.687822,12.626906 0 1 1 37.37564,0 z"
       transform="matrix(0.32432433,0,0,0.51999998,244.90739,251.73707)" />
    <path
       sodipodi:type="arc"
       style="fill:#808080"
       id="path2989-0-4"
       sodipodi:cx="274.25641"
       sodipodi:cy="362.93307"
       sodipodi:rx="18.687822"
       sodipodi:ry="12.626906"
       d="m 292.94423,362.93307 a 18.687822,12.626906 0 1 1 -37.37564,0 18.687822,12.626906 0 1 1 37.37564,0 z"
       transform="matrix(0.32432433,0,0,0.51999998,244.40232,270.92998)" />
    <path
       sodipodi:type="arc"
       style="fill:#808080"
       id="path2989-7-1"
       sodipodi:cx="274.25641"
       sodipodi:cy="362.93307"
       sodipodi:rx="18.687822"
       sodipodi:ry="12.626906"
       d="m 292.94423,362.93307 a 18.687822,12.626906 0 1 1 -37.37564,0 18.687822,12.626906 0 1 1 37.37564,0 z"
       transform="matrix(0.32432433,0,0,0.51999998,245.41247,291.13303)" />
    <path
       sodipodi:type="arc"
       style="fill:#808080"
       id="path2989-3-1-1"
       sodipodi:cx="274.25641"
       sodipodi:cy="362.93307"
       sodipodi:rx="18.687822"
       sodipodi:ry="12.626906"
       d="m 292.94423,362.93307 a 18.687822,12.626906 0 1 1 -37.37564,0 18.687822,12.626906 0 1 1 37.37564,0 z"
       transform="matrix(0.32432433,0,0,0.51999998,245.91754,311.58862)" />
    <path
       sodipodi:type="arc"
       style="fill:#808080"
       id="path2989-0-4-6"
       sodipodi:cx="274.25641"
       sodipodi:cy="362.93307"
       sodipodi:rx="18.687822"
       sodipodi:ry="12.626906"
       d="m 292.94423,362.93307 a 18.687822,12.626906 0 1 1 -37.37564,0 18.687822,12.626906 0 1 1 37.37564,0 z"
       transform="matrix(0.32432433,0,0,0.51999998,245.41247,330.78153)" />
    <ellipse
       style="fill:#808080"
       id="path2989-7-1-0"
       transform="scale(1,-1)"
       cx="335.37064"
       cy="-539.67114"
       rx="6.0609155"
       ry="6.5659909" />
    <path
       sodipodi:type="arc"
       style="fill:#808080"
       id="path2989-68"
       sodipodi:cx="274.25641"
       sodipodi:cy="362.93307"
       sodipodi:rx="18.687822"
       sodipodi:ry="12.626906"
       d="m 292.94423,362.93307 a 18.687822,12.626906 0 1 1 -37.37564,0 18.687822,12.626906 0 1 1 37.37564,0 z"
       transform="matrix(0.32432433,0,0,0.51999998,265.36252,112.54995)" />
    <path
       sodipodi:type="arc"
       style="fill:#808080"
       id="path2989-6-9"
       sodipodi:cx="274.25641"
       sodipodi:cy="362.93307"
       sodipodi:rx="18.687822"
       sodipodi:ry="12.626906"
       d="m 292.94423,362.93307 a 18.687822,12.626906 0 1 1 -37.37564,0 18.687822,12.626906 0 1 1 37.37564,0 z"
       transform="matrix(0.32432433,0,0,0.51999998,265.36253,133.25806)" />
    <path
       sodipodi:type="arc"
       style="fill:#808080"
       id="path2989-3-3"
       sodipodi:cx="274.25641"
       sodipodi:cy="362.93307"
       sodipodi:rx="18.687822"
       sodipodi:ry="12.626906"
       d="m 292.94423,362.93307 a 18.687822,12.626906 0 1 1 -37.37564,0 18.687822,12.626906 0 1 1 37.37564,0 z"
       transform="matrix(0.32432433,0,0,0.51999998,265.36253,152.45095)" />
    <path
       sodipodi:type="arc"
       style="fill:#808080"
       id="path2989-0-8"
       sodipodi:cx="274.25641"
       sodipodi:cy="362.93307"
       sodipodi:rx="18.687822"
       sodipodi:ry="12.626906"
       d="m 292.94423,362.93307 a 18.687822,12.626906 0 1 1 -37.37564,0 18.687822,12.626906 0 1 1 37.37564,0 z"
       transform="matrix(0.32432433,0,0,0.51999998,264.85746,171.64386)" />
    <path
       sodipodi:type="arc"
       style="fill:#808080"
       id="path2989-7-4"
       sodipodi:cx="274.25641"
       sodipodi:cy="362.93307"
       sodipodi:rx="18.687822"
       sodipodi:ry="12.626906"
       d="m 292.94423,362.93307 a 18.687822,12.626906 0 1 1 -37.37564,0 18.687822,12.626906 0 1 1 37.37564,0 z"
       transform="matrix(0.32432433,0,0,0.51999998,265.86761,191.84691)" />
    <path
       sodipodi:type="arc"
       style="fill:#808080"
       id="path2989-31-9"
       sodipodi:cx="274.25641"
       sodipodi:cy="362.93307"
       sodipodi:rx="18.687822"
       sodipodi:ry="12.626906"
       d="m 292.94423,362.93307 a 18.687822,12.626906 0 1 1 -37.37564,0 18.687822,12.626906 0 1 1 37.37564,0 z"
       transform="matrix(0.32432433,0,0,0.51999998,265.8676,211.79742)" />
    <path
       sodipodi:type="arc"
       style="fill:#808080"
       id="path2989-6-3-6"
       sodipodi:cx="274.25641"
       sodipodi:cy="362.93307"
       sodipodi:rx="18.687822"
       sodipodi:ry="12.626906"
       d="m 292.94423,362.93307 a 18.687822,12.626906 0 1 1 -37.37564,0 18.687822,12.626906 0 1 1 37.37564,0 z"
       transform="matrix(0.32432433,0,0,0.51999998,265.86761,232.50554)" />
    <path
       sodipodi:type="arc"
       style="fill:#808080"
       id="path2989-3-1-9"
       sodipodi:cx="274.25641"
       sodipodi:cy="362.93307"
       sodipodi:rx="18.687822"
       sodipodi:ry="12.626906"
       d="m 292.94423,362.93307 a 18.687822,12.626906 0 1 1 -37.37564,0 18.687822,12.626906 0 1 1 37.37564,0 z"
       transform="matrix(0.32432433,0,0,0.51999998,265.86761,251.69843)" />
    <path
       sodipodi:type="arc"
       style="fill:#808080"
       id="path2989-0-4-61"
       sodipodi:cx="274.25641"
       sodipodi:cy="362.93307"
       sodipodi:rx="18.687822"
       sodipodi:ry="12.626906"
       d="m 292.94423,362.93307 a 18.687822,12.626906 0 1 1 -37.37564,0 18.687822,12.626906 0 1 1 37.37564,0 z"
       transform="matrix(0.32432433,0,0,0.51999998,265.36254,270.89134)" />
    <path
       sodipodi:type="arc"
       style="fill:#808080"
       id="path2989-7-1-6"
       sodipodi:cx="274.25641"
       sodipodi:cy="362.93307"
       sodipodi:rx="18.687822"
       sodipodi:ry="12.626906"
       d="m 292.94423,362.93307 a 18.687822,12.626906 0 1 1 -37.37564,0 18.687822,12.626906 0 1 1 37.37564,0 z"
       transform="matrix(0.32432433,0,0,0.51999998,266.37269,291.09439)" />
    <path
       sodipodi:type="arc"
       style="fill:#808080"
       id="path2989-3-1-1-9"
       sodipodi:cx="274.25641"
       sodipodi:cy="362.93307"
       sodipodi:rx="18.687822"
       sodipodi:ry="12.626906"
       d="m 292.94423,362.93307 a 18.687822,12.626906 0 1 1 -37.37564,0 18.687822,12.626906 0 1 1 37.37564,0 z"
       transform="matrix(0.32432433,0,0,0.51999998,266.87776,311.54998)" />
    <path
       sodipodi:type="arc"
       style="fill:#808080"
       id="path2989-0-4-6-5"
       sodipodi:cx="274.25641"
       sodipodi:cy="362.93307"
       sodipodi:rx="18.687822"
       sodipodi:ry="12.626906"
       d="m 292.94423,362.93307 a 18.687822,12.626906 0 1 1 -37.37564,0 18.687822,12.626906 0 1 1 37.37564,0 z"
       transform="matrix(0.32432433,0,0,0.51999998,266.37269,330.74289)" />
    <ellipse
       style="fill:#808080"
       id="path2989-7-1-0-1"
       transform="scale(1,-1)"
       cx="356.33087"
       cy="-539.70978"
       rx="6.0609155"
       ry="6.5659909" />
    <text
       xml:space="preserve"
       style="font-style:normal;font-variant:normal;font-weight:normal;font-stretch:normal;line-height:0%;font-family:'Ubuntu Mono';-inkscape-font-specification:'Ubuntu Mono';letter-spacing:0px;word-spacing:0px;fill:#000000;fill-opacity:1;stroke:none"
       x="277.21103"
       y="304.75882"
       id="text3150"
       inkscape:transform-center-x="7.1428572"><tspan
         sodipodi:role="line"
         id="tspan3152"
         x="277.21103"
         y="304.75882"
         style="font-size:16px;line-height:1.25">3v3</tspan><tspan
         sodipodi:role="line"
         x="277.21103"
         y="324.75882"
         id="tspan3154"
         style="font-size:16px;line-height:1.25">GPIO2</tspan><tspan
         sodipodi:role="line"
         x="277.21103"
         y="344.75882"
         id="tspan3156"
         style="font-size:16px;line-height:1.25">GPIO3</tspan><tspan
         sodipodi:role="line"
         x="277.21103"
         y="364.75882"
         id="tspan3158"
         style="font-size:16px;line-height:1.25">GPIO4</tspan><tspan
         sodipodi:role="line"
         x="277.21103"
         y="384.75882"
         id="tspan3160"
         style="font-size:16px;line-height:1.25">GND</tspan><tspan
         sodipodi:role="line"
         x="277.21103"
         y="404.75882"
         id="tspan3162"
         style="font-size:16px;line-height:1.25">GPIO17</tspan><tspan
         sodipodi:role="line"
         x="277.21103"
         y="424.75882"
         id="tspan3164"
         style="font-size:16px;line-height:1.25">GPIO27</tspan><tspan
         sodipodi:role="line"
         x="277.21103"
         y="444.75882"
         id="tspan3166"
         style="font-size:16px;line-height:1.25">GPIO22</tspan><tspan
         sodipodi:role="line"
         x="277.21103"
         y="464.75882"
         id="tspan3170"
         style="font-size:16px;line-height:1.25">3v3</tspan><tspan
         sodipodi:role="line"
         x="277.21103"
         y="484.75882"
         id="tspan3174"
         style="font-size:16px;line-height:1.25">GPIO10</tspan><tspan
         sodipodi:role="line"
         x="277.21103"
         y="504.75882"
         id="tspan3176"
         style="font-size:16px;line-height:1.25">GPIO9</tspan><tspan
         sodipodi:role="line"
         x="277.21103"
         y="524.75879"
         id="tspan3178"
         style="font-size:16px;line-height:1.25">GPIO11</tspan><tspan
         sodipodi:role="line"
         x="277.21103"
         y="544.75879"
         id="tspan3180"
         style="font-size:16px;line-height:1.25">GND</tspan><tspan
         sodipodi:role="line"
         x="277.21103"
         y="564.75879"
         id="tspan3468"
         style="font-size:16px;line-height:1.25">DNC</tspan><tspan
         sodipodi:role="line"
         x="277.21103"
         y="584.75879"
         id="tspan3472"
         style="font-size:16px;line-height:1.25">GPIO5</tspan><tspan
         sodipodi:role="line"
         x="277.21103"
         y="604.75879"
         id="tspan3476"
         style="font-size:16px;line-height:1.25">GPIO6</tspan><tspan
         sodipodi:role="line"
         x="277.21103"
         y="624.75879"
         id="tspan3478"
         style="font-size:16px;line-height:1.25">GPIO13</tspan><tspan
         sodipodi:role="line"
         x="277.21103"
         y="644.75879"
         id="tspan3480"
         style="font-size:16px;line-height:1.25">GPIO19</tspan><tspan
         sodipodi:role="line"
         x="277.21103"
         y="664.75879"
         id="tspan3482"
         style="font-size:16px;line-height:1.25">GPIO26</tspan><tspan
         sodipodi:role="line"
         x="277.21103"
         y="684.75879"
         id="tspan3484"
         style="font-size:16px;line-height:1.25">GND</tspan></text>
    <text
       xml:space="preserve"
       style="font-style:normal;font-variant:normal;font-weight:normal;font-stretch:normal;line-height:0%;font-family:'Ubuntu Mono';-inkscape-font-specification:'Ubuntu Mono';letter-spacing:0px;word-spacing:0px;fill:#000000;fill-opacity:1;stroke:none"
       x="368.20303"
       y="303.29028"
       id="text3150-8"
       inkscape:transform-center-x="7.1428572"><tspan
         sodipodi:role="line"
         x="368.20303"
         y="303.29028"
         id="tspan3180-7"
         style="font-size:16px;line-height:1.25">5V</tspan><tspan
         sodipodi:role="line"
         x="368.20303"
         y="323.29028"
         id="tspan3329"
         style="font-size:16px;line-height:1.25">5V</tspan><tspan
         sodipodi:role="line"
         x="368.20303"
         y="343.29028"
         id="tspan3331"
         style="font-size:16px;line-height:1.25">GND</tspan><tspan
         sodipodi:role="line"
         x="368.20303"
         y="363.29028"
         id="tspan3335"
         style="font-size:16px;line-height:1.25">GPIO14</tspan><tspan
         sodipodi:role="line"
         x="368.20303"
         y="383.29028"
         id="tspan3339"
         style="font-size:16px;line-height:1.25">GPIO15</tspan><tspan
         sodipodi:role="line"
         x="368.20303"
         y="403.29028"
         id="tspan3341"
         style="font-size:16px;line-height:1.25">GPIO18</tspan><tspan
         sodipodi:role="line"
         x="368.20303"
         y="423.29028"
         id="tspan3343"
         style="font-size:16px;line-height:1.25">GND</tspan><tspan
         sodipodi:role="line"
         x="368.20303"
         y="443.29028"
         id="tspan3345"
         style="font-size:16px;line-height:1.25">GPIO23</tspan><tspan
         sodipodi:role="line"
         x="368.20303"
         y="463.29028"
         id="tspan3347"
         style="font-size:16px;line-height:1.25">GPIO24</tspan><tspan
         sodipodi:role="line"
         x="368.20303"
         y="483.29028"
         id="tspan3349"
         style="font-size:16px;line-height:1.25">GND</tspan><tspan
         sodipodi:role="line"
         x="368.20303"
         y="503.29028"
         id="tspan3353"
         style="font-size:16px;line-height:1.25">GPIO25</tspan><tspan
         sodipodi:role="line"
         x="368.20303"
         y="523.29028"
         id="tspan3357"
         style="font-size:16px;line-height:1.25">GPIO8</tspan><tspan
         sodipodi:role="line"
         x="368.20303"
         y="543.29028"
         id="tspan3359"
         style="font-size:16px;line-height:1.25">GPIO7</tspan><tspan
         sodipodi:role="line"
         x="368.20303"
         y="563.29028"
         id="tspan3486"
         style="font-size:16px;line-height:1.25">DNC</tspan><tspan
         sodipodi:role="line"
         x="368.20303"
         y="583.29028"
         id="tspan3488"
         style="font-size:16px;line-height:1.25">GND</tspan><tspan
         sodipodi:role="line"
         x="368.20303"
         y="603.29028"
         id="tspan3492"
         style="font-size:16px;line-height:1.25">GPIO12</tspan><tspan
         sodipodi:role="line"
         x="368.20303"
         y="623.29028"
         id="tspan3496"
         style="font-size:16px;line-height:1.25">GND</tspan><tspan
         sodipodi:role="line"
         x="368.20303"
         y="643.29028"
         id="tspan3498"
         style="font-size:16px;line-height:1.25">GPIO16</tspan><tspan
         sodipodi:role="line"
         x="368.20303"
         y="663.29028"
         id="tspan3500"
         style="font-size:16px;line-height:1.25">GPIO20</tspan><tspan
         sodipodi:role="line"
         x="368.20303"
         y="683.29028"
         id="tspan3502"
         style="font-size:16px;line-height:1.25">GPIO21</tspan><tspan
         sodipodi:role="line"
         x="368.20303"
         y="703.29028"
         id="tspan3494"
         style="font-size:16px;line-height:1.25"> </tspan><tspan
         sodipodi:role="line"
         x="368.20303"
         y="723.29028"
         id="tspan3490"
         style="font-size:16px;line-height:1.25"> </tspan></text>
    <path
       style="fill:none;stroke:#000000;stroke-width:1px;stroke-linecap:butt;stroke-linejoin:miter;stroke-opacity:1"
       d="m 424.2568,658.75878 65.65992,2.02031"
       id="path3382"
       inkscape:connector-curvature="0" />
    <path
       style="fill:none;stroke:#000000;stroke-width:1px;stroke-linecap:butt;stroke-linejoin:miter;stroke-opacity:1"
       d="m 423.75899,497.78843 65.65992,2.02031"
       id="path3382-5"
       inkscape:connector-curvature="0" />
    <text
       xml:space="preserve"
       style="font-style:normal;font-variant:normal;font-weight:normal;font-stretch:normal;line-height:0%;font-family:'Gillius ADF';-inkscape-font-specification:'Gillius ADF';letter-spacing:0px;word-spacing:0px;fill:#000000;fill-opacity:1;stroke:none"
       x="490.48355"
       y="677.92987"
       id="text3402"><tspan
         sodipodi:role="line"
         x="490.48355"
         y="677.92987"
         id="tspan3406"
         style="font-size:20px;line-height:1.25">doorbell</tspan></text>
    <text
       xml:space="preserve"
       style="font-style:normal;font-variant:normal;font-weight:normal;font-stretch:normal;line-height:0%;font-family:'Gillius ADF';-inkscape-font-specification:'Gillius ADF';letter-spacing:0px;word-spacing:0px;fill:#000000;fill-opacity:1;stroke:none"
       x="481.84277"
       y="523.0423"
       id="text3410"><tspan
         sodipodi:role="line"
         id="tspan3412"
         x="481.84277"
         y="523.0423"
         style="font-size:20px;line-height:1.25">front door</tspan></text>
    <path
       style="fill:none;stroke:#000000;stroke-width:1px;stroke-linecap:butt;stroke-linejoin:miter;stroke-opacity:1"
       d="m 489.92398,498.79859 c 1.68359,-0.67344 3.36718,-1.34687 5.05077,-2.02031 0.67343,-0.33671 1.32123,-0.73052 2.0203,-1.01015 0.98864,-0.39545 2.07808,-0.53396 3.03046,-1.01015 1.08588,-0.54294 1.94458,-1.47737 3.03046,-2.02031 0.95238,-0.47619 2.04182,-0.6147 3.03046,-1.01015 0.69907,-0.27963 1.32123,-0.73052 2.0203,-1.01015 0.98864,-0.39546 2.04182,-0.6147 3.03046,-1.01016 0.69907,-0.27962 1.39383,-0.5925 2.0203,-1.01015 1.87237,-1.24825 0.0926,-1.01015 2.02031,-1.01015"
       id="path3414"
       inkscape:connector-curvature="0" />
    <path
       style="fill:none;stroke:#000000;stroke-width:1px;stroke-linecap:butt;stroke-linejoin:miter;stroke-opacity:1"
       d="m 518.20826,500.81889 104.04571,1.51523"
       id="path3418"
       inkscape:connector-curvature="0"
       sodipodi:nodetypes="cc" />
    <path
       style="fill:none;stroke:#000000;stroke-width:1px;stroke-linecap:butt;stroke-linejoin:miter;stroke-opacity:1"
       d="m 488.90656,659.76893 35.35534,-19.1929"
       id="path3420"
       inkscape:connector-curvature="0" />
    <path
       style="fill:none;stroke:#000000;stroke-width:1px;stroke-linecap:butt;stroke-linejoin:miter;stroke-opacity:1"
       d="m 528.30251,660.77909 h 92.93404"
       id="path3422"
       inkscape:connector-curvature="0"
       sodipodi:nodetypes="cc" />
    <path
       style="fill:none;stroke:#000000;stroke-width:0.91806024px;stroke-linecap:butt;stroke-linejoin:miter;stroke-opacity:1"
       d="m 255.64717,341.21479 -58.746,0"
       id="path3424"
       inkscape:connector-curvature="0" />
    <text
       xml:space="preserve"
       style="font-style:normal;font-variant:normal;font-weight:normal;font-stretch:normal;line-height:0%;font-family:'Gillius ADF';-inkscape-font-specification:'Gillius ADF';letter-spacing:0px;word-spacing:0px;fill:#000000;fill-opacity:1;stroke:none"
       x="86.873116"
       y="328.08279"
       id="text3426"><tspan
         sodipodi:role="line"
         x="86.873116"
         y="328.08279"
         id="tspan3430"
         style="font-size:20px;line-height:1.25">Lights 433Mhz TX</tspan></text>
    <path
       style="fill:none;stroke:#000000;stroke-width:1px;stroke-linecap:butt;stroke-linejoin:miter;stroke-opacity:1"
       d="m 273.75134,299.79854 -27.27412,0 1.01015,-133.34014 377.79706,-1.01015 -3.03046,233.34524"
       id="path3453"
       inkscape:connector-curvature="0" />
    <rect
       style="fill:#808080"
       id="rect3457"
       width="31.31473"
       height="9.5964489"
       x="440.41925"
       y="655.72833" />
    <rect
       style="fill:#808080"
       id="rect3457-5"
       width="31.31473"
       height="9.5964489"
       x="440.42651"
       y="495.01053"
       inkscape:transform-center-y="-44.951788" />
    <path
       style="fill:none;stroke:#000000;stroke-width:1px;stroke-linecap:butt;stroke-linejoin:miter;stroke-opacity:1"
       d="m 622.25397,398.79349 -1.01742,261.9856"
       id="path3488"
       inkscape:connector-curvature="0"
       sodipodi:nodetypes="cc" />
    <path
       sodipodi:type="star"
       style="fill:#808080"
       id="path3528"
       sodipodi:sides="5"
       sodipodi:cx="187.88837"
       sodipodi:cy="348.79092"
       sodipodi:r1="21.019913"
       sodipodi:r2="17.005466"
       sodipodi:arg1="-2.5269297"
       sodipodi:arg2="-1.8986112"
       inkscape:flatsided="true"
       inkscape:rounded="0"
       inkscape:randomized="0"
       d="m 170.71577,336.66909 23.39452,-7.95612 14.79603,19.79092 -14.25007,20.1876 -23.60305,-7.31431 z"
       inkscape:transform-center-x="-1.9226799"
       inkscape:transform-center-y="-0.088697196"
       transform="translate(-2.5253814,0.50507627)" />
    <path
       style="fill:none;stroke:#000000;stroke-width:1px;stroke-linecap:butt;stroke-linejoin:miter;stroke-opacity:1"
       d="m 245.97214,299.29346 -0.50507,37.37564 -47.98225,0.50508"
       id="path3530"
       inkscape:connector-curvature="0" />
    <path
       style="fill:none;stroke:#000000;stroke-width:1px;stroke-linecap:butt;stroke-linejoin:miter;stroke-opacity:1"
       d="m 255.56859,341.21479 -0.004,19.48722 17.6922,-0.50871"
       id="path3532"
       inkscape:connector-curvature="0"
       sodipodi:nodetypes="ccc" />
    <text
       xml:space="preserve"
       style="font-style:normal;font-variant:normal;font-weight:normal;font-stretch:normal;line-height:0%;font-family:'Gillius ADF';-inkscape-font-specification:'Gillius ADF';letter-spacing:0px;word-spacing:0px;fill:#ffffff;fill-opacity:1;stroke:none"
       x="331.29941"
       y="304.49741"
       id="text3534"><tspan
         sodipodi:role="line"
         id="tspan3536"
         x="331.29941"
         y="304.49741"
         style="font-size:10px;line-height:1.25">1</tspan></text>
    <text
       xml:space="preserve"
       style="font-style:normal;font-variant:normal;font-weight:normal;font-stretch:normal;line-height:0%;font-family:'Gillius ADF';-inkscape-font-specification:'Gillius ADF';letter-spacing:0px;word-spacing:0px;fill:#000000;fill-opacity:1;stroke:none"
       x="332.14285"
       y="325.57648"
       id="text3538"><tspan
         sodipodi:role="line"
         id="tspan3540"
         x="332.14285"
         y="325.57648"
         style="font-size:20px;line-height:1.25"> </tspan></text>
    <text
       xml:space="preserve"
       style="font-style:normal;font-variant:normal;font-weight:normal;font-stretch:normal;line-height:0%;font-family:'Gillius ADF';-inkscape-font-specification:'Gillius ADF';letter-spacing:0px;word-spacing:0px;fill:#ffffff;fill-opacity:1;stroke:none"
       x="352.72357"
       y="304.03647"
       id="text3534-3"><tspan
         sodipodi:role="line"
         id="tspan3536-5"
         x="352.72357"
         y="304.03647"
         style="font-size:10px;line-height:1.25">2</tspan></text>
    <text
       xml:space="preserve"
       style="font-style:normal;font-variant:normal;font-weight:normal;font-stretch:normal;line-height:0%;font-family:'Gillius ADF';-inkscape-font-specification:'Gillius ADF';letter-spacing:0px;word-spacing:0px;fill:#ffffff;fill-opacity:1;stroke:none"
       x="331.04248"
       y="325.13055"
       id="text3534-8"><tspan
         sodipodi:role="line"
         id="tspan3536-1"
         x="331.04248"
         y="325.13055"
         style="font-size:10px;line-height:1.25">3</tspan></text>
    <text
       xml:space="preserve"
       style="font-style:normal;font-variant:normal;font-weight:normal;font-stretch:normal;line-height:0%;font-family:'Gillius ADF';-inkscape-font-specification:'Gillius ADF';letter-spacing:0px;word-spacing:0px;fill:#ffffff;fill-opacity:1;stroke:none"
       x="351.82635"
       y="325.32471"
       id="text3534-82"><tspan
         sodipodi:role="line"
         id="tspan3536-53"
         x="351.82635"
         y="325.32471"
         style="font-size:10px;line-height:1.25">4</tspan></text>
    <path
       style="fill:#000080;stroke:#0000ff;stroke-width:1px;stroke-linecap:butt;stroke-linejoin:miter;stroke-opacity:1"
       d="M 273.56807,398.67848 146.86285,399.3984"
       id="path3620"
       inkscape:connector-curvature="0"
       sodipodi:nodetypes="cc" />
    <path
       style="fill:none;stroke:#ff0000;stroke-width:1px;stroke-linecap:butt;stroke-linejoin:miter;stroke-opacity:1"
       d="m 390.78947,318.44984 230.37311,-1.43983"
       id="path3622"
       inkscape:connector-curvature="0" />
    <path
       style="fill:none;stroke:#ff0000;stroke-width:1px;stroke-linecap:butt;stroke-linejoin:miter;stroke-opacity:1"
       d="m 628.78415,316.2901 63.68872,1.01742 -3.87323,434.12978 -249.09094,0"
       id="path3624"
       inkscape:connector-curvature="0"
       sodipodi:nodetypes="cccc" />
    <path
       sodipodi:type="star"
       style="fill:#ffffff"
       id="path3626"
       sodipodi:sides="3"
       sodipodi:cx="416.83136"
       sodipodi:cy="743.51824"
       sodipodi:r1="23.361244"
       sodipodi:r2="14.692284"
       sodipodi:arg1="0.5880026"
       sodipodi:arg2="1.6352002"
       inkscape:flatsided="true"
       inkscape:rounded="0"
       inkscape:randomized="0"
       d="m 436.26909,756.47674 -40.37897,-2.60417 22.44475,-33.66713 z"
       inkscape:transform-center-x="0.24712321"
       inkscape:transform-center-y="-7.1310878" />
    <path
       sodipodi:type="star"
       style="fill:#ffffff"
       id="path3630"
       sodipodi:sides="3"
       sodipodi:cx="406.03262"
       sodipodi:cy="744.95805"
       sodipodi:r1="10.894306"
       sodipodi:r2="5.4471526"
       sodipodi:arg1="-1.7033479"
       sodipodi:arg2="-0.65615031"
       inkscape:flatsided="true"
       inkscape:rounded="0"
       inkscape:randomized="0"
       d="m 404.59279,734.15933 11.51173,14.95118 -18.70396,2.49386 z"
       inkscape:transform-center-x="-0.71991598"
       inkscape:transform-center-y="-2.0762194" />
    <path
       style="fill:none;stroke:#000000;stroke-width:1px;stroke-linecap:butt;stroke-linejoin:miter;stroke-opacity:1"
       d="m 438.42883,735.59915 -0.71991,30.23647 -21.59748,-15.11824 z"
       id="path3650"
       inkscape:connector-curvature="0" />
    <path
       style="fill:none;stroke:#000000;stroke-width:1px;stroke-linecap:butt;stroke-linejoin:miter;stroke-opacity:1"
       d="m 416.11143,749.99747 -31.6763,-0.71992"
       id="path3654"
       inkscape:connector-curvature="0" />
    <path
       style="fill:none;stroke:#000000;stroke-width:1px;stroke-linecap:butt;stroke-linejoin:miter;stroke-opacity:1"
       d="m 384.07517,734.15932 -0.71991,30.23647 -21.59748,-15.11824 z"
       id="path3650-0"
       inkscape:connector-curvature="0" />
    <path
       style="fill:none;stroke:#e7e000;stroke-width:1px;stroke-linecap:butt;stroke-linejoin:miter;stroke-opacity:1"
       d="m 361.39782,748.55764 -166.30059,-2.87967 -1.43983,18.71782"
       id="path3692"
       inkscape:connector-curvature="0" />
    <path
       style="fill:none;stroke:#000000;stroke-width:1.02705491px;stroke-linecap:butt;stroke-linejoin:miter;stroke-opacity:1"
       d="m 165.94063,821.6017 c 0,0 0.61431,44.4422 0.61431,-138.32029 l 104.8418,-2.27747"
       id="path3698"
       inkscape:connector-curvature="0"
       sodipodi:nodetypes="cc" />
    <path
       style="fill:none;stroke:#000000;stroke-width:1px;stroke-linecap:butt;stroke-linejoin:miter;stroke-opacity:1"
       d="m 180.69891,762.23603 0,28.79664"
       id="path3718"
       inkscape:connector-curvature="0" />
    <path
       style="fill:none;stroke:#1f1b00;stroke-width:1px;stroke-linecap:butt;stroke-linejoin:miter;stroke-opacity:1"
       d="m 165.58067,821.98907 31.67631,0.71991 0.71991,-34.55597"
       id="path3720"
       inkscape:connector-curvature="0" />
    <path
       style="fill:none;stroke:#000000;stroke-width:1px;stroke-linecap:butt;stroke-linejoin:miter;stroke-opacity:1"
       d="m 180.69891,777.35427 -10.07882,0"
       id="path3722"
       inkscape:connector-curvature="0" />
    <path
       style="fill:none;stroke:#0600ff;stroke-width:1px;stroke-linecap:butt;stroke-linejoin:miter;stroke-opacity:1"
       d="m 161.62114,776.99432 -15.83815,0.35996 1.79979,-378.6758"
       id="path3724"
       inkscape:connector-curvature="0"
       sodipodi:nodetypes="ccc" />
    <text
       xml:space="preserve"
       style="font-style:normal;font-variant:normal;font-weight:normal;font-stretch:normal;line-height:0%;font-family:'Gillius ADF';-inkscape-font-specification:'Gillius ADF';letter-spacing:0px;word-spacing:0px;fill:#000000;fill-opacity:1;stroke:none"
       x="339.08041"
       y="711.84192"
       id="text3726"><tspan
         sodipodi:role="line"
         id="tspan3728"
         x="339.08041"
         y="711.84192"
         style="font-size:20px;line-height:1.25">IR Transmitter</tspan></text>
    <path
       style="fill:none;stroke:#000000;stroke-width:1px;stroke-linecap:butt;stroke-linejoin:miter;stroke-opacity:1"
       d="m 193.6574,762.23604 -13.67841,7.91907"
       id="path3730"
       inkscape:connector-curvature="0" />
    <path
       style="fill:none;stroke:#000000;stroke-width:1px;stroke-linecap:butt;stroke-linejoin:miter;stroke-opacity:1;marker-end:url(#Arrow2Lend)"
       d="m 180.69891,784.55343 17.27798,4.3195"
       id="path3732"
       inkscape:connector-curvature="0" />
    <path
       style="fill:none;stroke:#000000;stroke-width:1px;stroke-linecap:butt;stroke-linejoin:miter;stroke-opacity:1"
       d="m 360.6779,731.27965 0,33.11614"
       id="path4946"
       inkscape:connector-curvature="0" />
    <path
       style="fill:none;stroke:#000000;stroke-width:1px;stroke-linecap:butt;stroke-linejoin:miter;stroke-opacity:1"
       d="m 414.6716,733.4394 0,30.95639"
       id="path4948"
       inkscape:connector-curvature="0" />
    <path
       style="fill:none;stroke:#000000;stroke-width:3.0999999;stroke-linecap:butt;stroke-linejoin:miter;stroke-miterlimit:4;stroke-dasharray:none;stroke-opacity:1;marker-mid:none;marker-end:url(#Arrow2Send)"
       d="m 416.83135,731.27965 -7.91907,-12.95849"
       id="path4954"
       inkscape:connector-curvature="0" />
    <path
       style="fill:none;stroke:#000000;stroke-width:3.0999999;stroke-linecap:butt;stroke-linejoin:miter;stroke-miterlimit:4;stroke-dasharray:none;stroke-opacity:1;marker-mid:none;marker-end:url(#Arrow2Send)"
       d="m 425.43463,731.56924 -7.91907,-12.95849"
       id="path4954-9"
       inkscape:connector-curvature="0" />
    <path
       style="fill:none;stroke:#000000;stroke-width:3.0999999;stroke-linecap:butt;stroke-linejoin:miter;stroke-miterlimit:4;stroke-dasharray:none;stroke-opacity:1;marker-mid:none;marker-end:url(#Arrow2Send)"
       d="m 372.89863,732.14436 -7.91907,-12.95849"
       id="path4954-6"
       inkscape:connector-curvature="0" />
    <path
       style="fill:none;stroke:#000000;stroke-width:3.0999999;stroke-linecap:butt;stroke-linejoin:miter;stroke-miterlimit:4;stroke-dasharray:none;stroke-opacity:1;marker-mid:none;marker-end:url(#Arrow2Send)"
       d="m 381.50191,732.43395 -7.91907,-12.95849"
       id="path4954-9-2"
       inkscape:connector-curvature="0" />
    <text
       xml:space="preserve"
       style="font-style:normal;font-variant:normal;font-weight:normal;font-stretch:normal;line-height:0%;font-family:'Gillius ADF';-inkscape-font-specification:'Gillius ADF';letter-spacing:0px;word-spacing:0px;fill:#000000;fill-opacity:1;stroke:none"
       x="351.319"
       y="783.83356"
       id="text5565"><tspan
         sodipodi:role="line"
         id="tspan5567"
         x="351.319"
         y="783.83356"
         style="font-size:20px;line-height:1.25">(tv)</tspan></text>
    <text
       xml:space="preserve"
       style="font-style:normal;font-variant:normal;font-weight:normal;font-stretch:normal;line-height:0%;font-family:'Gillius ADF';-inkscape-font-specification:'Gillius ADF';letter-spacing:0px;word-spacing:0px;fill:#000000;fill-opacity:1;stroke:none"
       x="404.5928"
       y="786.7132"
       id="text5569"><tspan
         sodipodi:role="line"
         id="tspan5571"
         x="404.5928"
         y="786.7132"
         style="font-size:20px;line-height:1.25">(robot)</tspan></text>
    <text
       xml:space="preserve"
       style="font-style:normal;font-variant:normal;font-weight:normal;font-stretch:normal;line-height:0%;font-family:'Gillius ADF';-inkscape-font-specification:'Gillius ADF';letter-spacing:0px;word-spacing:0px;fill:#000000;fill-opacity:1;stroke:none"
       x="321.08255"
       y="257.57495"
       id="text5573"><tspan
         sodipodi:role="line"
         id="tspan5575"
         x="321.08255"
         y="257.57495"
         style="font-size:40px;line-height:1.25">PI1</tspan></text>
    <ellipse
       style="fill:#808080"
       id="path2989-7-1-0-3"
       transform="scale(1,-1)"
       cx="335.43951"
       cy="-559.56036"
       rx="6.0609155"
       ry="6.5659909" />
    <ellipse
       style="fill:#808080"
       id="path2989-7-1-0-1-5"
       transform="scale(1,-1)"
       cx="356.39975"
       cy="-559.599"
       rx="6.0609155"
       ry="6.5659909" />
    <ellipse
       style="fill:#808080"
       id="path2989-7-1-0-14"
       transform="scale(1,-1)"
       cx="335.43948"
       cy="-580.078"
       rx="6.0609155"
       ry="6.5659909" />
    <ellipse
       style="fill:#808080"
       id="path2989-7-1-0-1-4"
       transform="scale(1,-1)"
       cx="356.39972"
       cy="-580.11664"
       rx="6.0609155"
       ry="6.5659909" />
    <ellipse
       style="fill:#808080"
       id="path2989-7-1-0-10"
       transform="scale(1,-1)"
       cx="335.07956"
       cy="-600.59558"
       rx="6.0609155"
       ry="6.5659909" />
    <ellipse
       style="fill:#808080"
       id="path2989-7-1-0-1-7"
       transform="scale(1,-1)"
       cx="356.03979"
       cy="-600.63422"
       rx="6.0609155"
       ry="6.5659909" />
    <ellipse
       style="fill:#808080"
       id="path2989-7-1-0-32"
       transform="scale(1,-1)"
       cx="336.15942"
       cy="-621.11322"
       rx="6.0609155"
       ry="6.5659909" />
    <ellipse
       style="fill:#808080"
       id="path2989-7-1-0-1-3"
       transform="scale(1,-1)"
       cx="357.11966"
       cy="-621.15186"
       rx="6.0609155"
       ry="6.5659909" />
    <ellipse
       style="fill:#808080"
       id="path2989-7-1-0-8"
       transform="scale(1,-1)"
       cx="335.79947"
       cy="-639.83099"
       rx="6.0609155"
       ry="6.5659909" />
    <ellipse
       style="fill:#808080"
       id="path2989-7-1-0-1-45"
       transform="scale(1,-1)"
       cx="356.75967"
       cy="-639.86963"
       rx="6.0609155"
       ry="6.5659909" />
    <ellipse
       style="fill:#808080"
       id="path2989-7-1-0-39"
       transform="scale(1,-1)"
       cx="335.43951"
       cy="-659.62872"
       rx="6.0609155"
       ry="6.5659909" />
    <ellipse
       style="fill:#808080"
       id="path2989-7-1-0-1-455"
       transform="scale(1,-1)"
       cx="356.39975"
       cy="-659.66736"
       rx="6.0609155"
       ry="6.5659909" />
    <ellipse
       style="fill:#808080"
       id="path2989-7-1-0-6"
       transform="scale(1,-1)"
       cx="335.07956"
       cy="-680.50623"
       rx="6.0609155"
       ry="6.5659909" />
    <ellipse
       style="fill:#808080"
       id="path2989-7-1-0-1-58"
       transform="scale(1,-1)"
       cx="356.03979"
       cy="-680.54486"
       rx="6.0609155"
       ry="6.5659909" />
    <path
       style="fill:none;fill-rule:evenodd;stroke:#000000;stroke-width:1px;stroke-linecap:butt;stroke-linejoin:miter;stroke-opacity:1"
       d="m 197.84173,360.99528 24.82014,1.07913"
       id="path3592"
       inkscape:connector-curvature="0" />
    <path
       style="fill:none;fill-rule:evenodd;stroke:#000000;stroke-width:1px;stroke-linecap:butt;stroke-linejoin:miter;stroke-opacity:1"
       d="m 222.30216,361.7147 0,31.42279"
       id="path3594"
       inkscape:connector-curvature="0"
       sodipodi:nodetypes="cc" />
    <path
       style="fill:none;fill-rule:evenodd;stroke:#000000;stroke-width:1px;stroke-linecap:butt;stroke-linejoin:miter;stroke-opacity:1"
       d="m 222.30216,403.80103 0,134.17266"
       id="path3598"
       inkscape:connector-curvature="0" />
    <path
       style="fill:none;fill-rule:evenodd;stroke:#000000;stroke-width:1px;stroke-linecap:butt;stroke-linejoin:miter;stroke-opacity:1"
       d="m 220.86331,537.97369 49.28057,1.43885"
       id="path3600"
       inkscape:connector-curvature="0" />
  </g>
</svg>
