<?xml version="1.0" encoding="UTF-8" standalone="no"?>
<!-- Created with Inkscape (http://www.inkscape.org/) -->

<svg
   width="744.09448819"
   height="1052.3622047"
   id="svg2"
   version="1.1"
   inkscape:version="1.1.1 (3bf5ae0d25, 2021-09-20, custom)"
   sodipodi:docname="pi4.svg"
   xmlns:inkscape="http://www.inkscape.org/namespaces/inkscape"
   xmlns:sodipodi="http://sodipodi.sourceforge.net/DTD/sodipodi-0.dtd"
   xmlns="http://www.w3.org/2000/svg"
   xmlns:svg="http://www.w3.org/2000/svg"
   xmlns:rdf="http://www.w3.org/1999/02/22-rdf-syntax-ns#"
   xmlns:cc="http://creativecommons.org/ns#"
   xmlns:dc="http://purl.org/dc/elements/1.1/">
  <defs
     id="defs4">
    <marker
       inkscape:stockid="Arrow2Send"
       orient="auto"
       refY="0.0"
       refX="0.0"
       id="Arrow2Send"
       style="overflow:visible;">
      <path
         id="path4539"
         style="fill-rule:evenodd;stroke-width:0.62500000;stroke-linejoin:round;"
         d="M 8.7185878,4.0337352 L -2.2072895,0.016013256 L 8.7185884,-4.0017078 C 6.9730900,-1.6296469 6.9831476,1.6157441 8.7185878,4.0337352 z "
         transform="scale(0.3) rotate(180) translate(-2.3,0)" />
    </marker>
    <marker
       inkscape:stockid="Arrow2Lend"
       orient="auto"
       refY="0.0"
       refX="0.0"
       id="Arrow2Lend"
       style="overflow:visible;">
      <path
         id="path4527"
         style="fill-rule:evenodd;stroke-width:0.62500000;stroke-linejoin:round;"
         d="M 8.7185878,4.0337352 L -2.2072895,0.016013256 L 8.7185884,-4.0017078 C 6.9730900,-1.6296469 6.9831476,1.6157441 8.7185878,4.0337352 z "
         transform="scale(1.1) rotate(180) translate(1,0)" />
    </marker>
    <marker
       inkscape:stockid="Arrow2Send"
       orient="auto"
       refY="0"
       refX="0"
       id="Arrow2Send-0"
       style="overflow:visible">
      <path
         inkscape:connector-curvature="0"
         id="path4539-9"
         style="fill-rule:evenodd;stroke-width:0.625;stroke-linejoin:round"
         d="M 8.7185878,4.0337352 -2.2072895,0.01601326 8.7185884,-4.0017078 c -1.7454984,2.3720609 -1.7354408,5.6174519 -6e-7,8.035443 z"
         transform="matrix(-0.3,0,0,-0.3,0.69,0)" />
    </marker>
    <marker
       inkscape:stockid="Arrow2Send"
       orient="auto"
       refY="0"
       refX="0"
       id="Arrow2Send-02"
       style="overflow:visible">
      <path
         inkscape:connector-curvature="0"
         id="path4539-5"
         style="fill-rule:evenodd;stroke-width:0.625;stroke-linejoin:round"
         d="M 8.7185878,4.0337352 -2.2072895,0.01601326 8.7185884,-4.0017078 c -1.7454984,2.3720609 -1.7354408,5.6174519 -6e-7,8.035443 z"
         transform="matrix(-0.3,0,0,-0.3,0.69,0)" />
    </marker>
    <marker
       inkscape:stockid="Arrow2Send"
       orient="auto"
       refY="0"
       refX="0"
       id="marker5542"
       style="overflow:visible">
      <path
         inkscape:connector-curvature="0"
         id="path5544"
         style="fill-rule:evenodd;stroke-width:0.625;stroke-linejoin:round"
         d="M 8.7185878,4.0337352 -2.2072895,0.01601326 8.7185884,-4.0017078 c -1.7454984,2.3720609 -1.7354408,5.6174519 -6e-7,8.035443 z"
         transform="matrix(-0.3,0,0,-0.3,0.69,0)" />
    </marker>
    <marker
       inkscape:stockid="Arrow2Send"
       orient="auto"
       refY="0"
       refX="0"
       id="Arrow2Send-7"
       style="overflow:visible">
      <path
         inkscape:connector-curvature="0"
         id="path4539-53"
         style="fill-rule:evenodd;stroke-width:0.625;stroke-linejoin:round"
         d="M 8.7185878,4.0337352 -2.2072895,0.01601326 8.7185884,-4.0017078 c -1.7454984,2.3720609 -1.7354408,5.6174519 -6e-7,8.035443 z"
         transform="matrix(-0.3,0,0,-0.3,0.69,0)" />
    </marker>
  </defs>
  <sodipodi:namedview
     id="base"
     pagecolor="#ffffff"
     bordercolor="#666666"
     borderopacity="1.0"
     inkscape:pageopacity="0.0"
     inkscape:pageshadow="2"
     inkscape:zoom="2.8284271"
     inkscape:cx="293.80287"
     inkscape:cy="343.47712"
     inkscape:document-units="px"
     inkscape:current-layer="layer1"
     showgrid="false"
     inkscape:window-width="3840"
     inkscape:window-height="2127"
     inkscape:window-x="2160"
     inkscape:window-y="0"
     inkscape:window-maximized="0"
     inkscape:pagecheckerboard="0" />
  <metadata
     id="metadata7">
    <rdf:RDF>
      <cc:Work
         rdf:about="">
        <dc:format>image/svg+xml</dc:format>
        <dc:type
           rdf:resource="http://purl.org/dc/dcmitype/StillImage" />
        <dc:title />
      </cc:Work>
    </rdf:RDF>
  </metadata>
  <g
     inkscape:label="Layer 1"
     inkscape:groupmode="layer"
     id="layer1">
    <path
       sodipodi:type="arc"
       style="fill:#ff0800;fill-opacity:1"
       id="path2989"
       sodipodi:cx="274.25641"
       sodipodi:cy="362.93307"
       sodipodi:rx="18.687822"
       sodipodi:ry="12.626906"
       d="m 292.94423,362.93307 a 18.687822,12.626906 0 1 1 -37.37564,0 18.687822,12.626906 0 1 1 37.37564,0 z"
       transform="matrix(0.32432433,0,0,0.51999998,244.4023,112.58858)" />
    <path
       sodipodi:type="arc"
       style="fill:#808080"
       id="path2989-6"
       sodipodi:cx="274.25641"
       sodipodi:cy="362.93307"
       sodipodi:rx="18.687822"
       sodipodi:ry="12.626906"
       d="m 292.94423,362.93307 a 18.687822,12.626906 0 1 1 -37.37564,0 18.687822,12.626906 0 1 1 37.37564,0 z"
       transform="matrix(0.32432433,0,0,0.51999998,244.40231,133.2967)" />
    <path
       sodipodi:type="arc"
       style="fill:#808080"
       id="path2989-3"
       sodipodi:cx="274.25641"
       sodipodi:cy="362.93307"
       sodipodi:rx="18.687822"
       sodipodi:ry="12.626906"
       d="m 292.94423,362.93307 a 18.687822,12.626906 0 1 1 -37.37564,0 18.687822,12.626906 0 1 1 37.37564,0 z"
       transform="matrix(0.32432433,0,0,0.51999998,244.40231,152.48959)" />
    <path
       sodipodi:type="arc"
       style="fill:#0013fd;fill-opacity:1"
       id="path2989-0"
       sodipodi:cx="274.25641"
       sodipodi:cy="362.93307"
       sodipodi:rx="18.687822"
       sodipodi:ry="12.626906"
       d="m 292.94423,362.93307 a 18.687822,12.626906 0 1 1 -37.37564,0 18.687822,12.626906 0 1 1 37.37564,0 z"
       transform="matrix(0.32432433,0,0,0.51999998,243.89724,171.6825)" />
    <path
       sodipodi:type="arc"
       style="fill:#808080"
       id="path2989-7"
       sodipodi:cx="274.25641"
       sodipodi:cy="362.93307"
       sodipodi:rx="18.687822"
       sodipodi:ry="12.626906"
       d="m 292.94423,362.93307 a 18.687822,12.626906 0 1 1 -37.37564,0 18.687822,12.626906 0 1 1 37.37564,0 z"
       transform="matrix(0.32432433,0,0,0.51999998,244.90739,191.88555)" />
    <path
       sodipodi:type="arc"
       style="fill:#808080"
       id="path2989-6-3"
       sodipodi:cx="274.25641"
       sodipodi:cy="362.93307"
       sodipodi:rx="18.687822"
       sodipodi:ry="12.626906"
       d="m 292.94423,362.93307 a 18.687822,12.626906 0 1 1 -37.37564,0 18.687822,12.626906 0 1 1 37.37564,0 z"
       transform="matrix(0.32432433,0,0,0.51999998,244.90739,232.54418)" />
    <path
       sodipodi:type="arc"
       style="fill:#808080"
       id="path2989-3-1"
       sodipodi:cx="274.25641"
       sodipodi:cy="362.93307"
       sodipodi:rx="18.687822"
       sodipodi:ry="12.626906"
       d="m 292.94423,362.93307 a 18.687822,12.626906 0 1 1 -37.37564,0 18.687822,12.626906 0 1 1 37.37564,0 z"
       transform="matrix(0.32432433,0,0,0.51999998,244.90739,251.73707)" />
    <path
       sodipodi:type="arc"
       style="fill:#808080"
       id="path2989-0-4"
       sodipodi:cx="274.25641"
       sodipodi:cy="362.93307"
       sodipodi:rx="18.687822"
       sodipodi:ry="12.626906"
       d="m 292.94423,362.93307 a 18.687822,12.626906 0 1 1 -37.37564,0 18.687822,12.626906 0 1 1 37.37564,0 z"
       transform="matrix(0.32432433,0,0,0.51999998,244.40232,270.92998)" />
    <path
       sodipodi:type="arc"
       style="fill:#808080"
       id="path2989-7-1"
       sodipodi:cx="274.25641"
       sodipodi:cy="362.93307"
       sodipodi:rx="18.687822"
       sodipodi:ry="12.626906"
       d="m 292.94423,362.93307 a 18.687822,12.626906 0 1 1 -37.37564,0 18.687822,12.626906 0 1 1 37.37564,0 z"
       transform="matrix(0.32432433,0,0,0.51999998,245.41247,291.13303)" />
    <path
       sodipodi:type="arc"
       style="fill:#808080"
       id="path2989-3-1-1"
       sodipodi:cx="274.25641"
       sodipodi:cy="362.93307"
       sodipodi:rx="18.687822"
       sodipodi:ry="12.626906"
       d="m 292.94423,362.93307 a 18.687822,12.626906 0 1 1 -37.37564,0 18.687822,12.626906 0 1 1 37.37564,0 z"
       transform="matrix(0.32432433,0,0,0.51999998,245.91754,311.58862)" />
    <path
       sodipodi:type="arc"
       style="fill:#808080"
       id="path2989-0-4-6"
       sodipodi:cx="274.25641"
       sodipodi:cy="362.93307"
       sodipodi:rx="18.687822"
       sodipodi:ry="12.626906"
       d="m 292.94423,362.93307 a 18.687822,12.626906 0 1 1 -37.37564,0 18.687822,12.626906 0 1 1 37.37564,0 z"
       transform="matrix(0.32432433,0,0,0.51999998,245.41247,330.78153)" />
    <ellipse
       style="fill:#808080"
       id="path2989-7-1-0"
       transform="scale(1,-1)"
       cx="335.37064"
       cy="-539.67114"
       rx="6.0609155"
       ry="6.5659909" />
    <path
       sodipodi:type="arc"
       style="fill:#808080"
       id="path2989-68"
       sodipodi:cx="274.25641"
       sodipodi:cy="362.93307"
       sodipodi:rx="18.687822"
       sodipodi:ry="12.626906"
       d="m 292.94423,362.93307 a 18.687822,12.626906 0 1 1 -37.37564,0 18.687822,12.626906 0 1 1 37.37564,0 z"
       transform="matrix(0.32432433,0,0,0.51999998,265.36252,112.54995)" />
    <path
       sodipodi:type="arc"
       style="fill:#808080"
       id="path2989-6-9"
       sodipodi:cx="274.25641"
       sodipodi:cy="362.93307"
       sodipodi:rx="18.687822"
       sodipodi:ry="12.626906"
       d="m 292.94423,362.93307 a 18.687822,12.626906 0 1 1 -37.37564,0 18.687822,12.626906 0 1 1 37.37564,0 z"
       transform="matrix(0.32432433,0,0,0.51999998,265.36253,133.25806)" />
    <path
       sodipodi:type="arc"
       style="fill:#000000;fill-opacity:1"
       id="path2989-3-3"
       sodipodi:cx="274.25641"
       sodipodi:cy="362.93307"
       sodipodi:rx="18.687822"
       sodipodi:ry="12.626906"
       d="m 292.94423,362.93307 a 18.687822,12.626906 0 1 1 -37.37564,0 18.687822,12.626906 0 1 1 37.37564,0 z"
       transform="matrix(0.32432433,0,0,0.51999998,265.36253,152.45095)" />
    <path
       sodipodi:type="arc"
       style="fill:#808080"
       id="path2989-0-8"
       sodipodi:cx="274.25641"
       sodipodi:cy="362.93307"
       sodipodi:rx="18.687822"
       sodipodi:ry="12.626906"
       d="m 292.94423,362.93307 a 18.687822,12.626906 0 1 1 -37.37564,0 18.687822,12.626906 0 1 1 37.37564,0 z"
       transform="matrix(0.32432433,0,0,0.51999998,264.85746,171.64386)" />
    <path
       sodipodi:type="arc"
       style="fill:#808080"
       id="path2989-7-4"
       sodipodi:cx="274.25641"
       sodipodi:cy="362.93307"
       sodipodi:rx="18.687822"
       sodipodi:ry="12.626906"
       d="m 292.94423,362.93307 a 18.687822,12.626906 0 1 1 -37.37564,0 18.687822,12.626906 0 1 1 37.37564,0 z"
       transform="matrix(0.32432433,0,0,0.51999998,265.86761,191.84691)" />
    <ellipse
       style="fill:#808080"
       id="path2989-31-9"
       cx="334.75787"
       cy="400.42181"
       rx="6.0609155"
       ry="6.5659909" />
    <path
       sodipodi:type="arc"
       style="fill:#808080"
       id="path2989-6-3-6"
       sodipodi:cx="274.25641"
       sodipodi:cy="362.93307"
       sodipodi:rx="18.687822"
       sodipodi:ry="12.626906"
       d="m 292.94423,362.93307 a 18.687822,12.626906 0 1 1 -37.37564,0 18.687822,12.626906 0 1 1 37.37564,0 z"
       transform="matrix(0.32432433,0,0,0.51999998,265.86761,232.50554)" />
    <path
       sodipodi:type="arc"
       style="fill:#808080"
       id="path2989-3-1-9"
       sodipodi:cx="274.25641"
       sodipodi:cy="362.93307"
       sodipodi:rx="18.687822"
       sodipodi:ry="12.626906"
       d="m 292.94423,362.93307 a 18.687822,12.626906 0 1 1 -37.37564,0 18.687822,12.626906 0 1 1 37.37564,0 z"
       transform="matrix(0.32432433,0,0,0.51999998,265.86761,251.69843)" />
    <path
       sodipodi:type="arc"
       style="fill:#808080"
       id="path2989-0-4-61"
       sodipodi:cx="274.25641"
       sodipodi:cy="362.93307"
       sodipodi:rx="18.687822"
       sodipodi:ry="12.626906"
       d="m 292.94423,362.93307 a 18.687822,12.626906 0 1 1 -37.37564,0 18.687822,12.626906 0 1 1 37.37564,0 z"
       transform="matrix(0.32432433,0,0,0.51999998,265.36254,270.89134)" />
    <path
       sodipodi:type="arc"
       style="fill:#808080"
       id="path2989-7-1-6"
       sodipodi:cx="274.25641"
       sodipodi:cy="362.93307"
       sodipodi:rx="18.687822"
       sodipodi:ry="12.626906"
       d="m 292.94423,362.93307 a 18.687822,12.626906 0 1 1 -37.37564,0 18.687822,12.626906 0 1 1 37.37564,0 z"
       transform="matrix(0.32432433,0,0,0.51999998,266.37269,291.09439)" />
    <path
       sodipodi:type="arc"
       style="fill:#808080"
       id="path2989-3-1-1-9"
       sodipodi:cx="274.25641"
       sodipodi:cy="362.93307"
       sodipodi:rx="18.687822"
       sodipodi:ry="12.626906"
       d="m 292.94423,362.93307 a 18.687822,12.626906 0 1 1 -37.37564,0 18.687822,12.626906 0 1 1 37.37564,0 z"
       transform="matrix(0.32432433,0,0,0.51999998,266.87776,311.54998)" />
    <path
       sodipodi:type="arc"
       style="fill:#808080"
       id="path2989-0-4-6-5"
       sodipodi:cx="274.25641"
       sodipodi:cy="362.93307"
       sodipodi:rx="18.687822"
       sodipodi:ry="12.626906"
       d="m 292.94423,362.93307 a 18.687822,12.626906 0 1 1 -37.37564,0 18.687822,12.626906 0 1 1 37.37564,0 z"
       transform="matrix(0.32432433,0,0,0.51999998,266.37269,330.74289)" />
    <ellipse
       style="fill:#808080"
       id="path2989-7-1-0-1"
       transform="scale(1,-1)"
       cx="356.33087"
       cy="-539.70978"
       rx="6.0609155"
       ry="6.5659909" />
    <text
       xml:space="preserve"
       style="font-style:normal;font-variant:normal;font-weight:normal;font-stretch:normal;line-height:0%;font-family:'Ubuntu Mono';-inkscape-font-specification:'Ubuntu Mono';letter-spacing:0px;word-spacing:0px;fill:#000000;fill-opacity:1;stroke:none"
       x="277.21103"
       y="304.75882"
       id="text3150"
       inkscape:transform-center-x="7.1428572"><tspan
         sodipodi:role="line"
         id="tspan3152"
         x="277.21103"
         y="304.75882"
         style="font-size:16px;line-height:1.25">3v3</tspan><tspan
         sodipodi:role="line"
         x="277.21103"
         y="324.75882"
         id="tspan3154"
         style="font-size:16px;line-height:1.25">GPIO2</tspan><tspan
         sodipodi:role="line"
         x="277.21103"
         y="344.75882"
         id="tspan3156"
         style="font-size:16px;line-height:1.25">GPIO3</tspan><tspan
         sodipodi:role="line"
         x="277.21103"
         y="364.75882"
         id="tspan3158"
         style="font-size:16px;line-height:1.25">GPIO4</tspan><tspan
         sodipodi:role="line"
         x="277.21103"
         y="384.75882"
         id="tspan3160"
         style="font-size:16px;line-height:1.25">GND</tspan><tspan
         sodipodi:role="line"
         x="277.21103"
         y="404.75882"
         id="tspan3162"
         style="font-size:16px;line-height:1.25">GPIO17</tspan><tspan
         sodipodi:role="line"
         x="277.21103"
         y="424.75882"
         id="tspan3164"
         style="font-size:16px;line-height:1.25">GPIO27</tspan><tspan
         sodipodi:role="line"
         x="277.21103"
         y="444.75882"
         id="tspan3166"
         style="font-size:16px;line-height:1.25">GPIO22</tspan><tspan
         sodipodi:role="line"
         x="277.21103"
         y="464.75882"
         id="tspan3170"
         style="font-size:16px;line-height:1.25">3v3</tspan><tspan
         sodipodi:role="line"
         x="277.21103"
         y="484.75882"
         id="tspan3174"
         style="font-size:16px;line-height:1.25">GPIO10</tspan><tspan
         sodipodi:role="line"
         x="277.21103"
         y="504.75882"
         id="tspan3176"
         style="font-size:16px;line-height:1.25">GPIO9</tspan><tspan
         sodipodi:role="line"
         x="277.21103"
         y="524.75879"
         id="tspan3178"
         style="font-size:16px;line-height:1.25">GPIO11</tspan><tspan
         sodipodi:role="line"
         x="277.21103"
         y="544.75879"
         id="tspan3180"
         style="font-size:16px;line-height:1.25">GND</tspan><tspan
         sodipodi:role="line"
         x="277.21103"
         y="564.75879"
         id="tspan3468"
         style="font-size:16px;line-height:1.25">DNC</tspan><tspan
         sodipodi:role="line"
         x="277.21103"
         y="584.75879"
         id="tspan3472"
         style="font-size:16px;line-height:1.25">GPIO5</tspan><tspan
         sodipodi:role="line"
         x="277.21103"
         y="604.75879"
         id="tspan3476"
         style="font-size:16px;line-height:1.25">GPIO6</tspan><tspan
         sodipodi:role="line"
         x="277.21103"
         y="624.75879"
         id="tspan3478"
         style="font-size:16px;line-height:1.25">GPIO13</tspan><tspan
         sodipodi:role="line"
         x="277.21103"
         y="644.75879"
         id="tspan3480"
         style="font-size:16px;line-height:1.25">GPIO19</tspan><tspan
         sodipodi:role="line"
         x="277.21103"
         y="664.75879"
         id="tspan3482"
         style="font-size:16px;line-height:1.25">GPIO26</tspan><tspan
         sodipodi:role="line"
         x="277.21103"
         y="684.75879"
         id="tspan3484"
         style="font-size:16px;line-height:1.25">GND</tspan></text>
    <text
       xml:space="preserve"
       style="font-style:normal;font-variant:normal;font-weight:normal;font-stretch:normal;line-height:0%;font-family:'Ubuntu Mono';-inkscape-font-specification:'Ubuntu Mono';letter-spacing:0px;word-spacing:0px;fill:#000000;fill-opacity:1;stroke:none"
       x="368.20303"
       y="303.29028"
       id="text3150-8"
       inkscape:transform-center-x="7.1428572"><tspan
         sodipodi:role="line"
         x="368.20303"
         y="303.29028"
         id="tspan3180-7"
         style="font-size:16px;line-height:1.25">5V</tspan><tspan
         sodipodi:role="line"
         x="368.20303"
         y="323.29028"
         id="tspan3329"
         style="font-size:16px;line-height:1.25">5V</tspan><tspan
         sodipodi:role="line"
         x="368.20303"
         y="343.29028"
         id="tspan3331"
         style="font-size:16px;line-height:1.25">GND</tspan><tspan
         sodipodi:role="line"
         x="368.20303"
         y="363.29028"
         id="tspan3335"
         style="font-size:16px;line-height:1.25">GPIO14</tspan><tspan
         sodipodi:role="line"
         x="368.20303"
         y="383.29028"
         id="tspan3339"
         style="font-size:16px;line-height:1.25">GPIO15</tspan><tspan
         sodipodi:role="line"
         x="368.20303"
         y="403.29028"
         id="tspan3341"
         style="font-size:16px;line-height:1.25">GPIO18</tspan><tspan
         sodipodi:role="line"
         x="368.20303"
         y="423.29028"
         id="tspan3343"
         style="font-size:16px;line-height:1.25">GND</tspan><tspan
         sodipodi:role="line"
         x="368.20303"
         y="443.29028"
         id="tspan3345"
         style="font-size:16px;line-height:1.25">GPIO23</tspan><tspan
         sodipodi:role="line"
         x="368.20303"
         y="463.29028"
         id="tspan3347"
         style="font-size:16px;line-height:1.25">GPIO24</tspan><tspan
         sodipodi:role="line"
         x="368.20303"
         y="483.29028"
         id="tspan3349"
         style="font-size:16px;line-height:1.25">GND</tspan><tspan
         sodipodi:role="line"
         x="368.20303"
         y="503.29028"
         id="tspan3353"
         style="font-size:16px;line-height:1.25">GPIO25</tspan><tspan
         sodipodi:role="line"
         x="368.20303"
         y="523.29028"
         id="tspan3357"
         style="font-size:16px;line-height:1.25">GPIO8</tspan><tspan
         sodipodi:role="line"
         x="368.20303"
         y="543.29028"
         id="tspan3359"
         style="font-size:16px;line-height:1.25">GPIO7</tspan><tspan
         sodipodi:role="line"
         x="368.20303"
         y="563.29028"
         id="tspan3486"
         style="font-size:16px;line-height:1.25">DNC</tspan><tspan
         sodipodi:role="line"
         x="368.20303"
         y="583.29028"
         id="tspan3488"
         style="font-size:16px;line-height:1.25">GND</tspan><tspan
         sodipodi:role="line"
         x="368.20303"
         y="603.29028"
         id="tspan3492"
         style="font-size:16px;line-height:1.25">GPIO12</tspan><tspan
         sodipodi:role="line"
         x="368.20303"
         y="623.29028"
         id="tspan3496"
         style="font-size:16px;line-height:1.25">GND</tspan><tspan
         sodipodi:role="line"
         x="368.20303"
         y="643.29028"
         id="tspan3498"
         style="font-size:16px;line-height:1.25">GPIO16</tspan><tspan
         sodipodi:role="line"
         x="368.20303"
         y="663.29028"
         id="tspan3500"
         style="font-size:16px;line-height:1.25">GPIO20</tspan><tspan
         sodipodi:role="line"
         x="368.20303"
         y="683.29028"
         id="tspan3502"
         style="font-size:16px;line-height:1.25">GPIO21</tspan><tspan
         sodipodi:role="line"
         x="368.20303"
         y="703.29028"
         id="tspan3494"
         style="font-size:16px;line-height:1.25"> </tspan><tspan
         sodipodi:role="line"
         x="368.20303"
         y="723.29028"
         id="tspan3490"
         style="font-size:16px;line-height:1.25"> </tspan></text>
    <text
       xml:space="preserve"
       style="font-style:normal;font-variant:normal;font-weight:normal;font-stretch:normal;line-height:0%;font-family:'Gillius ADF';-inkscape-font-specification:'Gillius ADF';letter-spacing:0px;word-spacing:0px;fill:#ffffff;fill-opacity:1;stroke:none"
       x="331.29941"
       y="304.49741"
       id="text3534"><tspan
         sodipodi:role="line"
         id="tspan3536"
         x="331.29941"
         y="304.49741"
         style="font-size:10px;line-height:1.25">1</tspan></text>
    <text
       xml:space="preserve"
       style="font-style:normal;font-variant:normal;font-weight:normal;font-stretch:normal;line-height:0%;font-family:'Gillius ADF';-inkscape-font-specification:'Gillius ADF';letter-spacing:0px;word-spacing:0px;fill:#000000;fill-opacity:1;stroke:none"
       x="332.14285"
       y="325.57648"
       id="text3538"><tspan
         sodipodi:role="line"
         id="tspan3540"
         x="332.14285"
         y="325.57648"
         style="font-size:20px;line-height:1.25"> </tspan></text>
    <text
       xml:space="preserve"
       style="font-style:normal;font-variant:normal;font-weight:normal;font-stretch:normal;line-height:0%;font-family:'Gillius ADF';-inkscape-font-specification:'Gillius ADF';letter-spacing:0px;word-spacing:0px;fill:#ffffff;fill-opacity:1;stroke:none"
       x="352.72357"
       y="304.03647"
       id="text3534-3"><tspan
         sodipodi:role="line"
         id="tspan3536-5"
         x="352.72357"
         y="304.03647"
         style="font-size:10px;line-height:1.25">2</tspan></text>
    <text
       xml:space="preserve"
       style="font-style:normal;font-variant:normal;font-weight:normal;font-stretch:normal;line-height:0%;font-family:'Gillius ADF';-inkscape-font-specification:'Gillius ADF';letter-spacing:0px;word-spacing:0px;fill:#ffffff;fill-opacity:1;stroke:none"
       x="331.04248"
       y="325.13055"
       id="text3534-8"><tspan
         sodipodi:role="line"
         id="tspan3536-1"
         x="331.04248"
         y="325.13055"
         style="font-size:10px;line-height:1.25">3</tspan></text>
    <text
       xml:space="preserve"
       style="font-style:normal;font-variant:normal;font-weight:normal;font-stretch:normal;line-height:0%;font-family:'Gillius ADF';-inkscape-font-specification:'Gillius ADF';letter-spacing:0px;word-spacing:0px;fill:#ffffff;fill-opacity:1;stroke:none"
       x="351.82635"
       y="325.32471"
       id="text3534-82"><tspan
         sodipodi:role="line"
         id="tspan3536-53"
         x="351.82635"
         y="325.32471"
         style="font-size:10px;line-height:1.25">4</tspan></text>
    <text
       xml:space="preserve"
       style="font-style:normal;font-variant:normal;font-weight:normal;font-stretch:normal;line-height:0%;font-family:'Gillius ADF';-inkscape-font-specification:'Gillius ADF';letter-spacing:0px;word-spacing:0px;fill:#000000;fill-opacity:1;stroke:none"
       x="321.08255"
       y="257.57495"
       id="text5573"><tspan
         sodipodi:role="line"
         id="tspan5575"
         x="321.08255"
         y="257.57495"
         style="font-size:40px;line-height:1.25">PI4</tspan></text>
    <ellipse
       style="fill:#808080"
       id="path2989-7-1-0-3"
       transform="scale(1,-1)"
       cx="335.43951"
       cy="-559.56036"
       rx="6.0609155"
       ry="6.5659909" />
    <ellipse
       style="fill:#808080"
       id="path2989-7-1-0-1-5"
       transform="scale(1,-1)"
       cx="356.39975"
       cy="-559.599"
       rx="6.0609155"
       ry="6.5659909" />
    <ellipse
       style="fill:#808080"
       id="path2989-7-1-0-14"
       transform="scale(1,-1)"
       cx="335.43948"
       cy="-580.078"
       rx="6.0609155"
       ry="6.5659909" />
    <ellipse
       style="fill:#808080"
       id="path2989-7-1-0-1-4"
       transform="scale(1,-1)"
       cx="356.39972"
       cy="-580.11664"
       rx="6.0609155"
       ry="6.5659909" />
    <ellipse
       style="fill:#808080"
       id="path2989-7-1-0-10"
       transform="scale(1,-1)"
       cx="335.07956"
       cy="-600.59558"
       rx="6.0609155"
       ry="6.5659909" />
    <ellipse
       style="fill:#808080"
       id="path2989-7-1-0-1-7"
       transform="scale(1,-1)"
       cx="356.03979"
       cy="-600.63422"
       rx="6.0609155"
       ry="6.5659909" />
    <ellipse
       style="fill:#808080"
       id="path2989-7-1-0-32"
       transform="scale(1,-1)"
       cx="336.15942"
       cy="-621.11322"
       rx="6.0609155"
       ry="6.5659909" />
    <ellipse
       style="fill:#808080"
       id="path2989-7-1-0-1-3"
       transform="scale(1,-1)"
       cx="357.11966"
       cy="-621.15186"
       rx="6.0609155"
       ry="6.5659909" />
    <ellipse
       style="fill:#808080"
       id="path2989-7-1-0-8"
       transform="scale(1,-1)"
       cx="335.79947"
       cy="-639.83099"
       rx="6.0609155"
       ry="6.5659909" />
    <ellipse
       style="fill:#808080"
       id="path2989-7-1-0-1-45"
       transform="scale(1,-1)"
       cx="356.75967"
       cy="-639.86963"
       rx="6.0609155"
       ry="6.5659909" />
    <ellipse
       style="fill:#808080"
       id="path2989-7-1-0-39"
       transform="scale(1,-1)"
       cx="335.43951"
       cy="-659.62872"
       rx="6.0609155"
       ry="6.5659909" />
    <ellipse
       style="fill:#808080"
       id="path2989-7-1-0-1-455"
       transform="scale(1,-1)"
       cx="356.39975"
       cy="-659.66736"
       rx="6.0609155"
       ry="6.5659909" />
    <ellipse
       style="fill:#808080"
       id="path2989-7-1-0-6"
       transform="scale(1,-1)"
       cx="335.07956"
       cy="-680.50623"
       rx="6.0609155"
       ry="6.5659909" />
    <ellipse
       style="fill:#808080"
       id="path2989-7-1-0-1-58"
       transform="scale(1,-1)"
       cx="356.03979"
       cy="-680.54486"
       rx="6.0609155"
       ry="6.5659909" />
    <text
       xml:space="preserve"
       style="font-style:normal;font-weight:normal;font-size:13.3333px;line-height:1.25;font-family:sans-serif;letter-spacing:0px;word-spacing:0px;fill:#000000;fill-opacity:1;stroke:none"
       x="447.15601"
       y="483.62451"
       id="text4081" />
    <path
       style="fill:#000000;stroke:#000000;stroke-width:1.08471322px;stroke-linecap:butt;stroke-linejoin:miter;stroke-opacity:1;marker-end:url(#Arrow2Send)"
       d="m 365.125,655.61218 v 5.58886"
       id="path4107"
       inkscape:connector-curvature="0" />
    <path
       style="fill:#000000;stroke:#000000;stroke-width:1.08471322px;stroke-linecap:butt;stroke-linejoin:miter;stroke-opacity:1;marker-end:url(#Arrow2Send-7)"
       d="m 364.74479,496.33438 v 5.58886"
       id="path4107-5"
       inkscape:connector-curvature="0" />
    <ellipse
       style="fill:#008000;stroke-width:0.410669"
       id="path2989-31-9-4"
       cx="355.28638"
       cy="399.75049"
       rx="6.0609155"
       ry="6.5659909" />
    <path
       style="fill:none;fill-rule:evenodd;stroke:#000000;stroke-width:1.54427px;stroke-linecap:butt;stroke-linejoin:miter;stroke-opacity:1"
       d="M 616.34594,398.61953 H 429.21077"
       id="path4373"
       inkscape:connector-curvature="0" />
    <path
       style="fill:none;fill-rule:evenodd;stroke:#000000;stroke-width:1.23864px;stroke-linecap:butt;stroke-linejoin:miter;stroke-opacity:1"
       d="M 546.96736,415.10273 H 426.57402"
       id="path4373-9"
       inkscape:connector-curvature="0" />
    <path
       style="fill:none;fill-rule:evenodd;stroke:#000000;stroke-width:1.03379px;stroke-linecap:butt;stroke-linejoin:miter;stroke-opacity:1"
       d="M 616.34594,398.61953 V 438.2429"
       id="path4291"
       inkscape:connector-curvature="0" />
    <path
       sodipodi:type="star"
       style="fill:#808080"
       id="path3528-74"
       sodipodi:sides="5"
       sodipodi:cx="-583.97473"
       sodipodi:cy="627.34058"
       sodipodi:r1="21.019913"
       sodipodi:r2="17.005466"
       sodipodi:arg1="-2.5269297"
       sodipodi:arg2="-1.8986112"
       inkscape:flatsided="true"
       inkscape:rounded="0"
       inkscape:randomized="0"
       inkscape:transform-center-x="1.9226807"
       inkscape:transform-center-y="-0.088697196"
       transform="matrix(-1,0,0,1,41.282023,-176.05041)"
       d="m -601.14732,615.21875 23.39451,-7.95613 14.79603,19.79093 -14.25006,20.18759 -23.60306,-7.31431 z" />
    <path
       style="fill:none;fill-rule:evenodd;stroke:#000000;stroke-width:1px;stroke-linecap:butt;stroke-linejoin:miter;stroke-opacity:1"
       d="m 536.58422,440.76261 h 26.99684"
       id="path4312"
       inkscape:connector-curvature="0" />
    <path
       style="fill:none;fill-rule:evenodd;stroke:#000000;stroke-width:1px;stroke-linecap:butt;stroke-linejoin:miter;stroke-opacity:1"
       d="m 531.18485,449.04164 h 41.39517"
       id="path4314"
       inkscape:connector-curvature="0" />
    <path
       style="fill:none;fill-rule:evenodd;stroke:#000000;stroke-width:1px;stroke-linecap:butt;stroke-linejoin:miter;stroke-opacity:1"
       d="m 548.46282,449.04164 v 6.83921 h 62.27274"
       id="path4318"
       inkscape:connector-curvature="0" />
    <text
       xml:space="preserve"
       style="font-style:normal;font-variant:normal;font-weight:normal;font-stretch:normal;line-height:0%;font-family:'Gillius ADF';-inkscape-font-specification:'Gillius ADF';letter-spacing:0px;word-spacing:0px;fill:#000000;fill-opacity:1;stroke:none"
       x="578.62866"
       y="490.33893"
       id="text3426-7-9"><tspan
         sodipodi:role="line"
         x="578.62866"
         y="490.33893"
         id="tspan3430-2-7"
         style="font-size:20px;line-height:1.25">Neopixels LED</tspan><tspan
         sodipodi:role="line"
         x="578.62866"
         y="515.33893"
         style="font-size:20px;line-height:1.25"
         id="tspan23579">(ws2812b)</tspan></text>
    <text
       xml:space="preserve"
       style="font-style:normal;font-variant:normal;font-weight:normal;font-stretch:normal;line-height:0%;font-family:'Gillius ADF';-inkscape-font-specification:'Gillius ADF';letter-spacing:0px;word-spacing:0px;fill:#000000;fill-opacity:1;stroke:none"
       x="502.96194"
       y="454.79553"
       id="text3410-4"><tspan
         sodipodi:role="line"
         id="tspan3412-0"
         x="502.96194"
         y="454.79553"
         style="font-size:20px;line-height:1.25">5V</tspan></text>
    <path
       sodipodi:type="star"
       style="fill:#999999;stroke:none;stroke-opacity:1"
       id="path4371"
       sodipodi:sides="3"
       sodipodi:cx="543.17664"
       sodipodi:cy="630.13147"
       sodipodi:r1="8.6689367"
       sodipodi:r2="4.3344679"
       sodipodi:arg1="-0.083141232"
       sodipodi:arg2="0.96405632"
       inkscape:flatsided="false"
       inkscape:rounded="0"
       inkscape:randomized="0"
       inkscape:transform-center-x="-1.8480152"
       inkscape:transform-center-y="0.35995799"
       d="m 551.81563,629.41155 -6.16751,4.28073 -6.16751,4.28073 -0.62347,-7.48158 -0.62347,-7.48159 6.79098,3.20086 z"
       transform="translate(41.282023,-176.05041)" />
    <path
       style="fill:none;fill-rule:evenodd;stroke:#000000;stroke-width:1px;stroke-linecap:butt;stroke-linejoin:miter;stroke-opacity:1"
       d="m 537.94565,415.7403 10.729,-0.0241 c -0.17695,19.80738 0.31393,19.7514 0.31393,19.7514"
       id="path9929" />
    <path
       style="fill:none;stroke:#000000;stroke-width:1px;stroke-linecap:butt;stroke-linejoin:miter;stroke-opacity:1"
       d="M 273.56036,359.59151 H 196.52935"
       id="path5695"
       inkscape:connector-curvature="0"
       sodipodi:nodetypes="cc" />
    <path
       style="fill:none;stroke:#000000;stroke-width:1px;stroke-linecap:butt;stroke-linejoin:miter;stroke-opacity:1"
       d="M 273.6784,301.2853 H 196.64739"
       id="path5695-4"
       inkscape:connector-curvature="0"
       sodipodi:nodetypes="cc" />
    <path
       sodipodi:type="star"
       style="fill:#808080"
       id="path3528-74-3"
       sodipodi:sides="5"
       sodipodi:cx="-583.97473"
       sodipodi:cy="627.34058"
       sodipodi:r1="21.019913"
       sodipodi:r2="17.005466"
       sodipodi:arg1="-2.5269297"
       sodipodi:arg2="-1.8986112"
       inkscape:flatsided="true"
       inkscape:rounded="0"
       inkscape:randomized="0"
       inkscape:transform-center-x="1.9226807"
       inkscape:transform-center-y="-0.088697196"
       transform="matrix(-1,0,0,1,-403.33728,-271.85509)"
       d="m -601.14732,615.21875 23.39451,-7.95613 14.79603,19.79093 -14.25006,20.18759 -23.60306,-7.31431 z" />
    <path
       style="fill:none;fill-rule:evenodd;stroke:#000000;stroke-width:1px;stroke-linecap:butt;stroke-linejoin:miter;stroke-opacity:1"
       d="m 413.76744,337.01265 h 63.51057 V 265.04569 H 167.14504 v 84.2156"
       id="path10882" />
    <path
       style="fill:none;fill-rule:evenodd;stroke:#000000;stroke-width:1px;stroke-linecap:butt;stroke-linejoin:miter;stroke-opacity:1"
       d="m 196.64739,301.2853 v 44.24402"
       id="path10884" />
    <rect
       style="fill:#808080;stroke-width:0.80041"
       id="rect3457-5"
       width="20.06196"
       height="9.5964489"
       x="323.86133"
       y="-210.91293"
       inkscape:transform-center-y="-1.0218439"
       transform="rotate(88.697447)"
       inkscape:transform-center-x="-44.940179" />
    <path
       style="fill:none;fill-rule:evenodd;stroke:#000000;stroke-width:1px;stroke-linecap:butt;stroke-linejoin:miter;stroke-opacity:1"
       d="m 212.0502,301.62491 0.82267,17.6798"
       id="path11376" />
    <path
       style="fill:none;fill-rule:evenodd;stroke:#000000;stroke-width:1px;stroke-linecap:butt;stroke-linejoin:miter;stroke-opacity:1"
       d="m 213.57355,339.08071 1.42459,21.36772"
       id="path11378" />
    <text
       xml:space="preserve"
       style="font-style:normal;font-variant:normal;font-weight:normal;font-stretch:normal;font-size:12px;line-height:6px;font-family:'Ubuntu Condensed';-inkscape-font-specification:'Ubuntu Condensed, ';letter-spacing:0px;word-spacing:0px;fill:#000000;fill-opacity:1;stroke:none;stroke-width:1px;stroke-linecap:butt;stroke-linejoin:miter;stroke-opacity:1"
       x="220.55341"
       y="334.31088"
       id="text12658"><tspan
         sodipodi:role="line"
         id="tspan12656"
         x="220.55341"
         y="334.31088"
         style="font-size:12px">10kΩ</tspan></text>
    <text
       xml:space="preserve"
       style="font-style:normal;font-variant:normal;font-weight:normal;font-stretch:normal;line-height:0%;font-family:'Gillius ADF';-inkscape-font-specification:'Gillius ADF';letter-spacing:0px;word-spacing:0px;fill:#000000;fill-opacity:1;stroke:none"
       x="83.862778"
       y="393.19687"
       id="text3426-7-9-4"><tspan
         sodipodi:role="line"
         x="83.862778"
         y="393.19687"
         id="tspan3430-2-7-0"
         style="font-size:20px;line-height:1.25">DHT22 (AM2302)</tspan></text>
  </g>
</svg>
